<svg xmlns="http://www.w3.org/2000/svg" viewBox="0 0 24 24" fill="#ef5350">
  <path d="M6,4C6,4,3,7.2,3,9.5C3,11.2,4.1,12.5,5.6,12.5C7.2,12.5,8.8,11.2,9,9.5C9.2,7.2,6,4,6,4z"/>
  <path d="M18,4C18,4,15,7.2,15,9.5C15,11.2,16.1,12.5,17.6,12.5C19.2,12.5,20.8,11.2,21,9.5C21.2,7.2,18,4,18,4z"/>
  <path d="M9,13C9,13,6,16.2,6,18.5C6,20.2,7.1,21.5,8.6,21.5C10.2,21.5,11.8,20.2,12,18.5C12.2,16.2,9,13,9,13z"/>
  <path d="M15,13C15,13,12,16.2,12,18.5C12,20.2,13.1,21.5,14.6,21.5C16.2,21.5,17.8,20.2,18,18.5C18.2,16.2,15,13,15,13z"/>
</svg>
